<?xml version="1.0" encoding="UTF-8" standalone="no"?>
<!-- Uploaded to: SVG Repo, www.svgrepo.com, Generator: SVG Repo Mixer Tools -->

<svg
   width="666.66669"
   height="666.62335"
   viewBox="0 0 20.000001 19.998701"
   fill="none"
   version="1.1"
   id="svg2"
   sodipodi:docname="sidebar-top-svgrepo-com.svg"
   inkscape:version="1.3 (0e150ed, 2023-07-21)"
   xmlns:inkscape="http://www.inkscape.org/namespaces/inkscape"
   xmlns:sodipodi="http://sodipodi.sourceforge.net/DTD/sodipodi-0.dtd"
   xmlns="http://www.w3.org/2000/svg"
   xmlns:svg="http://www.w3.org/2000/svg">
  <defs
     id="defs2" />
  <sodipodi:namedview
     id="namedview2"
     pagecolor="#ffffff"
     bordercolor="#cccccc"
     borderopacity="1"
     inkscape:showpageshadow="0"
     inkscape:pageopacity="1"
     inkscape:pagecheckerboard="0"
     inkscape:deskcolor="#d1d1d1"
     showgrid="false"
     inkscape:zoom="0.6716627"
     inkscape:cx="154.0952"
     inkscape:cy="111.66319"
     inkscape:window-width="1800"
     inkscape:window-height="1097"
     inkscape:window-x="0"
     inkscape:window-y="44"
     inkscape:window-maximized="0"
     inkscape:current-layer="svg2" />
  <path
     d="m 18.9493,2.13 c -0.29,-0.42 -0.66,-0.79 -1.08,-1.08 C 16.9193,0.36 15.6793,0 14.1893,0 h -8.38 c -3.44,0 -5.57,1.94 -5.78,5.22 h 19.95 c -0.08,-1.23 -0.43,-2.27 -1.03,-3.09 z"
     fill="#292D32"
     id="path1"
     style="fill:#ffffff;fill-opacity:1" />
  <path
     d="m 0,14.1888 c 0,1.49 0.36,2.73 1.05,3.68 0.29,0.42 0.66,0.79 1.08,1.08 0.95,0.69 2.19,1.0499 3.68,1.0499 h 8.38 c 3.64,0 5.81,-2.1699 5.81,-5.8099 V 6.71875 H 0 Z m 6.91,-1.7501 2.56,-2.56 c 0.29,-0.29 0.77,-0.29 1.06,0 l 2.56,2.56 c 0.15,0.15 0.22,0.34 0.22,0.5301 0,0.19 -0.07,0.3799 -0.22,0.5299 -0.29,0.29 -0.77,0.29 -1.06,0 l -2.03,-2.02 -2.03,2.02 c -0.29,0.29 -0.77,0.29 -1.06,0 -0.29,-0.29 -0.29,-0.76 0,-1.06 z"
     fill="#292D32"
     id="path2"
     style="fill:#ffffff;fill-opacity:1" />
</svg>
